# Wavefront OBJ exported by MilkShape 3D

v -19.000000 21.500000 21.250000
v -19.000000 -21.500000 21.250000
v 20.250000 21.500000 21.250000
v 20.250000 -21.500000 21.250000
v 20.250000 21.500000 -21.750000
v 20.250000 -21.500000 -21.750000
v -19.000000 21.500000 -21.750000
v -19.000000 -21.500000 -21.750000
v -5.916667 7.166667 21.250000
v 7.166667 -7.166667 21.250000
v 20.250000 7.166667 6.916667
v 20.250000 -7.166667 -7.416667
v 7.166667 7.166667 -21.750000
v -5.916667 -7.166667 -21.750000
v -19.000000 7.166667 -7.416667
v -19.000000 -7.166667 6.916667
v -5.916667 21.500000 -7.416667
v 7.166667 21.500000 6.916667
v -5.916667 -21.500000 6.916667
v 7.166667 -21.500000 -7.416667
# 20 vertices

vt 0.333333 0.666667
vt 0.000000 0.000000
vt 1.000000 1.000000
vt 0.666667 0.333333
vt 1.000000 0.000000
vt 0.000000 1.000000
# 6 texture coordinates

vn 0.000000 0.000000 1.000000
vn 1.000000 0.000000 0.000000
vn 0.000000 0.000000 -1.000000
vn -1.000000 0.000000 0.000000
vn 0.000000 1.000000 0.000000
vn 0.000000 -1.000000 0.000000
# 6 normals

g Box01
s 1
f 9/1/1 2/2/1 3/3/1
f 10/4/1 4/5/1 3/3/1
s 2
f 11/1/2 4/2/2 5/3/2
f 12/4/2 6/5/2 5/3/2
s 1
f 13/1/3 6/2/3 7/3/3
f 14/4/3 8/5/3 7/3/3
s 2
f 15/1/4 8/2/4 1/3/4
f 16/4/4 2/5/4 1/3/4
s 3
f 17/1/5 1/2/5 5/3/5
f 18/4/5 3/5/5 5/3/5
f 19/1/6 8/2/6 4/3/6
f 20/4/6 6/5/6 4/3/6
s 1
f 1/6/1 9/1/1 3/3/1
f 1/6/1 2/2/1 9/1/1
f 2/2/1 10/4/1 3/3/1
f 2/2/1 4/5/1 10/4/1
s 2
f 3/6/2 11/1/2 5/3/2
f 3/6/2 4/2/2 11/1/2
f 4/2/2 12/4/2 5/3/2
f 4/2/2 6/5/2 12/4/2
s 1
f 5/6/3 13/1/3 7/3/3
f 5/6/3 6/2/3 13/1/3
f 6/2/3 14/4/3 7/3/3
f 6/2/3 8/5/3 14/4/3
s 2
f 7/6/4 15/1/4 1/3/4
f 7/6/4 8/2/4 15/1/4
f 8/2/4 16/4/4 1/3/4
f 8/2/4 2/5/4 16/4/4
s 3
f 7/6/5 17/1/5 5/3/5
f 7/6/5 1/2/5 17/1/5
f 1/2/5 18/4/5 5/3/5
f 1/2/5 3/5/5 18/4/5
f 2/6/6 19/1/6 4/3/6
f 2/6/6 8/2/6 19/1/6
f 8/2/6 20/4/6 4/3/6
f 8/2/6 6/5/6 20/4/6
# 36 triangles in group

# 36 triangles total

